<?xml version="1.0" encoding="UTF-8" standalone="no"?>
<!-- Created with Inkscape (http://www.inkscape.org/) -->

<svg
   version="1.1"
   id="svg2"
   xml:space="preserve"
   width="456.40268"
   height="94.487999"
   viewBox="0 0 456.40268 94.487999"
   sodipodi:docname="s4f_banner_dortmund.pdf"
   xmlns:inkscape="http://www.inkscape.org/namespaces/inkscape"
   xmlns:sodipodi="http://sodipodi.sourceforge.net/DTD/sodipodi-0.dtd"
   xmlns="http://www.w3.org/2000/svg"
   xmlns:svg="http://www.w3.org/2000/svg"><defs
     id="defs6"><clipPath
       clipPathUnits="userSpaceOnUse"
       id="clipPath18"><path
         d="m 5.074,0 h 337.23 V 70.867 H 5.074 Z"
         id="path16" /></clipPath><clipPath
       clipPathUnits="userSpaceOnUse"
       id="clipPath28"><path
         d="M 0,0 H 343 V 71 H 0 Z"
         id="path26" /></clipPath><clipPath
       clipPathUnits="userSpaceOnUse"
       id="clipPath42"><path
         d="M 20,15 H 59 V 53 H 20 Z"
         id="path40" /></clipPath><clipPath
       clipPathUnits="userSpaceOnUse"
       id="clipPath48"><path
         d="m 58.027,34.016 c 0,-10.457 -8.476,-18.938 -18.937,-18.938 -10.457,0 -18.934,8.481 -18.934,18.938 0,10.457 8.477,18.933 18.934,18.933 10.461,0 18.937,-8.476 18.937,-18.933 z"
         id="path46" /></clipPath><clipPath
       clipPathUnits="userSpaceOnUse"
       id="clipPath58"><path
         d="M 0,0 H 343 V 71 H 0 Z"
         id="path56" /></clipPath><clipPath
       clipPathUnits="userSpaceOnUse"
       id="clipPath68"><path
         d="M 20.156,15.082 H 58.027 V 52.949 H 20.156 Z"
         id="path66" /></clipPath><clipPath
       clipPathUnits="userSpaceOnUse"
       id="clipPath78"><path
         d="M 0,0 H 343 V 71 H 0 Z"
         id="path76" /></clipPath><clipPath
       clipPathUnits="userSpaceOnUse"
       id="clipPath90"><path
         d="M 20.156,15.082 H 58.027 V 52.949 H 20.156 Z"
         id="path88" /></clipPath><clipPath
       clipPathUnits="userSpaceOnUse"
       id="clipPath100"><path
         d="M 0,0 H 343 V 71 H 0 Z"
         id="path98" /></clipPath></defs><sodipodi:namedview
     id="namedview4"
     pagecolor="#ffffff"
     bordercolor="#666666"
     borderopacity="1.0"
     inkscape:pageshadow="2"
     inkscape:pageopacity="0.0"
     inkscape:pagecheckerboard="0" /><g
     id="g8"
     inkscape:groupmode="layer"
     inkscape:label="s4f_banner_dortmund"
     transform="matrix(1.3333333,0,0,1.3333333,0,2.3621999e-6)"><g
       id="g10" /><g
       id="g12"><g
         id="g14"
         clip-path="url(#clipPath18)"><g
           id="g20"><g
             id="g22"><g
               id="g24"
               clip-path="url(#clipPath28)"><g
                 id="g30"><path
                   d="m 58.367,34.016 c 0,-10.645 -8.629,-19.278 -19.277,-19.278 -10.645,0 -19.274,8.633 -19.274,19.278 0,10.644 8.629,19.277 19.274,19.277 10.648,0 19.277,-8.633 19.277,-19.277 z"
                   style="fill:#ffffff;fill-opacity:1;fill-rule:nonzero;stroke:none"
                   id="path32" /><path
                   d="M 67.438,34.016 C 67.438,18.359 54.746,5.668 39.09,5.668 c -15.652,0 -28.344,12.691 -28.344,28.348 0,15.656 12.692,28.347 28.344,28.347 15.656,0 28.348,-12.691 28.348,-28.347 z m -9.071,0 c 0,-10.645 -8.629,-19.278 -19.277,-19.278 -10.645,0 -19.274,8.633 -19.274,19.278 0,10.644 8.629,19.277 19.274,19.277 10.648,0 19.277,-8.633 19.277,-19.277 z"
                   style="fill:#0f4a90;fill-opacity:1;fill-rule:evenodd;stroke:none"
                   id="path34" /></g><g
                 id="g36"><g
                   id="g38"
                   clip-path="url(#clipPath42)"><g
                     id="g44"
                     clip-path="url(#clipPath48)"><g
                       id="g50"><g
                         id="g52"><g
                           id="g54"
                           clip-path="url(#clipPath58)"><g
                             id="g60" /><g
                             id="g62"><g
                               id="g64"
                               clip-path="url(#clipPath68)"><g
                                 id="g70"><g
                                   id="g72"><g
                                   id="g74"
                                   clip-path="url(#clipPath78)"><g
                                   id="g80"><path
                                   d="M 20.156,15.082 H 58.027 V 52.949 H 20.156 Z"
                                   style="fill:#ffffff;fill-opacity:1;fill-rule:nonzero;stroke:none"
                                   id="path82" /></g><g
                                   id="g84"><g
                                   id="g86"
                                   clip-path="url(#clipPath90)"><g
                                   id="g92"><g
                                   id="g94"><g
                                   id="g96"
                                   clip-path="url(#clipPath100)"><g
                                   id="g102"><path
                                   d="m 20.156,15.082 h 0.219 v 37.867 h -0.219 z"
                                   style="fill:#08519c;fill-opacity:1;fill-rule:nonzero;stroke:none"
                                   id="path104" /><path
                                   d="M 20.375,15.082 H 20.59 V 52.949 H 20.375 Z"
                                   style="fill:#4292c6;fill-opacity:1;fill-rule:nonzero;stroke:none"
                                   id="path106" /><path
                                   d="m 20.59,15.082 h 0.219 V 52.949 H 20.59 Z"
                                   style="fill:#4292c6;fill-opacity:1;fill-rule:nonzero;stroke:none"
                                   id="path108" /><path
                                   d="m 20.809,15.082 h 0.219 v 37.867 h -0.219 z"
                                   style="fill:#4292c6;fill-opacity:1;fill-rule:nonzero;stroke:none"
                                   id="path110" /><path
                                   d="m 21.027,15.082 h 0.219 v 37.867 h -0.219 z"
                                   style="fill:#2171b5;fill-opacity:1;fill-rule:nonzero;stroke:none"
                                   id="path112" /><path
                                   d="m 21.246,15.082 h 0.215 v 37.867 h -0.215 z"
                                   style="fill:#2171b5;fill-opacity:1;fill-rule:nonzero;stroke:none"
                                   id="path114" /><path
                                   d="M 21.461,15.082 H 21.68 V 52.949 H 21.461 Z"
                                   style="fill:#2171b5;fill-opacity:1;fill-rule:nonzero;stroke:none"
                                   id="path116" /><path
                                   d="m 21.68,15.082 h 0.219 V 52.949 H 21.68 Z"
                                   style="fill:#08306b;fill-opacity:1;fill-rule:nonzero;stroke:none"
                                   id="path118" /><path
                                   d="m 21.898,15.082 h 0.215 v 37.867 h -0.215 z"
                                   style="fill:#08519c;fill-opacity:1;fill-rule:nonzero;stroke:none"
                                   id="path120" /><path
                                   d="m 22.113,15.082 h 0.219 v 37.867 h -0.219 z"
                                   style="fill:#4292c6;fill-opacity:1;fill-rule:nonzero;stroke:none"
                                   id="path122" /><path
                                   d="m 22.332,15.082 h 0.219 v 37.867 h -0.219 z"
                                   style="fill:#08519c;fill-opacity:1;fill-rule:nonzero;stroke:none"
                                   id="path124" /><path
                                   d="M 22.551,15.082 H 22.77 V 52.949 H 22.551 Z"
                                   style="fill:#08519c;fill-opacity:1;fill-rule:nonzero;stroke:none"
                                   id="path126" /><path
                                   d="m 22.77,15.082 h 0.215 V 52.949 H 22.77 Z"
                                   style="fill:#08306b;fill-opacity:1;fill-rule:nonzero;stroke:none"
                                   id="path128" /><path
                                   d="m 22.984,15.082 h 0.219 v 37.867 h -0.219 z"
                                   style="fill:#2171b5;fill-opacity:1;fill-rule:nonzero;stroke:none"
                                   id="path130" /><path
                                   d="m 23.203,15.082 h 0.219 v 37.867 h -0.219 z"
                                   style="fill:#08306b;fill-opacity:1;fill-rule:nonzero;stroke:none"
                                   id="path132" /><path
                                   d="m 23.422,15.082 h 0.215 v 37.867 h -0.215 z"
                                   style="fill:#2171b5;fill-opacity:1;fill-rule:nonzero;stroke:none"
                                   id="path134" /><path
                                   d="m 23.637,15.082 h 0.219 v 37.867 h -0.219 z"
                                   style="fill:#2171b5;fill-opacity:1;fill-rule:nonzero;stroke:none"
                                   id="path136" /><path
                                   d="m 23.855,15.082 h 0.219 v 37.867 h -0.219 z"
                                   style="fill:#2171b5;fill-opacity:1;fill-rule:nonzero;stroke:none"
                                   id="path138" /><path
                                   d="m 24.074,15.082 h 0.219 v 37.867 h -0.219 z"
                                   style="fill:#2171b5;fill-opacity:1;fill-rule:nonzero;stroke:none"
                                   id="path140" /><path
                                   d="m 24.293,15.082 h 0.215 v 37.867 h -0.215 z"
                                   style="fill:#2171b5;fill-opacity:1;fill-rule:nonzero;stroke:none"
                                   id="path142" /><path
                                   d="m 24.508,15.082 h 0.219 v 37.867 h -0.219 z"
                                   style="fill:#2171b5;fill-opacity:1;fill-rule:nonzero;stroke:none"
                                   id="path144" /><path
                                   d="m 24.727,15.082 h 0.219 v 37.867 h -0.219 z"
                                   style="fill:#2171b5;fill-opacity:1;fill-rule:nonzero;stroke:none"
                                   id="path146" /><path
                                   d="M 24.945,15.082 H 25.16 V 52.949 H 24.945 Z"
                                   style="fill:#2171b5;fill-opacity:1;fill-rule:nonzero;stroke:none"
                                   id="path148" /><path
                                   d="m 25.16,15.082 h 0.219 V 52.949 H 25.16 Z"
                                   style="fill:#2171b5;fill-opacity:1;fill-rule:nonzero;stroke:none"
                                   id="path150" /><path
                                   d="m 25.379,15.082 h 0.219 v 37.867 h -0.219 z"
                                   style="fill:#08519c;fill-opacity:1;fill-rule:nonzero;stroke:none"
                                   id="path152" /><path
                                   d="m 25.598,15.082 h 0.219 v 37.867 h -0.219 z"
                                   style="fill:#08519c;fill-opacity:1;fill-rule:nonzero;stroke:none"
                                   id="path154" /><path
                                   d="m 25.816,15.082 h 0.215 v 37.867 h -0.215 z"
                                   style="fill:#08519c;fill-opacity:1;fill-rule:nonzero;stroke:none"
                                   id="path156" /><path
                                   d="M 26.031,15.082 H 26.25 V 52.949 H 26.031 Z"
                                   style="fill:#9ecae1;fill-opacity:1;fill-rule:nonzero;stroke:none"
                                   id="path158" /><path
                                   d="m 26.25,15.082 h 0.219 V 52.949 H 26.25 Z"
                                   style="fill:#c6dbef;fill-opacity:1;fill-rule:nonzero;stroke:none"
                                   id="path160" /><path
                                   d="m 26.469,15.082 h 0.219 v 37.867 h -0.219 z"
                                   style="fill:#2171b5;fill-opacity:1;fill-rule:nonzero;stroke:none"
                                   id="path162" /><path
                                   d="m 26.688,15.082 h 0.215 v 37.867 h -0.215 z"
                                   style="fill:#2171b5;fill-opacity:1;fill-rule:nonzero;stroke:none"
                                   id="path164" /><path
                                   d="m 26.902,15.082 h 0.219 v 37.867 h -0.219 z"
                                   style="fill:#4292c6;fill-opacity:1;fill-rule:nonzero;stroke:none"
                                   id="path166" /><path
                                   d="M 27.121,15.082 H 27.34 V 52.949 H 27.121 Z"
                                   style="fill:#2171b5;fill-opacity:1;fill-rule:nonzero;stroke:none"
                                   id="path168" /><path
                                   d="m 27.34,15.082 h 0.215 V 52.949 H 27.34 Z"
                                   style="fill:#2171b5;fill-opacity:1;fill-rule:nonzero;stroke:none"
                                   id="path170" /><path
                                   d="m 27.555,15.082 h 0.219 v 37.867 h -0.219 z"
                                   style="fill:#08306b;fill-opacity:1;fill-rule:nonzero;stroke:none"
                                   id="path172" /><path
                                   d="m 27.773,15.082 h 0.219 v 37.867 h -0.219 z"
                                   style="fill:#08306b;fill-opacity:1;fill-rule:nonzero;stroke:none"
                                   id="path174" /><path
                                   d="m 27.992,15.082 h 0.219 v 37.867 h -0.219 z"
                                   style="fill:#08519c;fill-opacity:1;fill-rule:nonzero;stroke:none"
                                   id="path176" /><path
                                   d="m 28.211,15.082 h 0.215 v 37.867 h -0.215 z"
                                   style="fill:#08306b;fill-opacity:1;fill-rule:nonzero;stroke:none"
                                   id="path178" /><path
                                   d="m 28.426,15.082 h 0.219 v 37.867 h -0.219 z"
                                   style="fill:#08519c;fill-opacity:1;fill-rule:nonzero;stroke:none"
                                   id="path180" /><path
                                   d="m 28.645,15.082 h 0.219 v 37.867 h -0.219 z"
                                   style="fill:#4292c6;fill-opacity:1;fill-rule:nonzero;stroke:none"
                                   id="path182" /><path
                                   d="m 28.863,15.082 h 0.215 v 37.867 h -0.215 z"
                                   style="fill:#08306b;fill-opacity:1;fill-rule:nonzero;stroke:none"
                                   id="path184" /><path
                                   d="m 29.078,15.082 h 0.219 v 37.867 h -0.219 z"
                                   style="fill:#08519c;fill-opacity:1;fill-rule:nonzero;stroke:none"
                                   id="path186" /><path
                                   d="m 29.297,15.082 h 0.219 v 37.867 h -0.219 z"
                                   style="fill:#08306b;fill-opacity:1;fill-rule:nonzero;stroke:none"
                                   id="path188" /><path
                                   d="m 29.516,15.082 h 0.219 v 37.867 h -0.219 z"
                                   style="fill:#08306b;fill-opacity:1;fill-rule:nonzero;stroke:none"
                                   id="path190" /><path
                                   d="m 29.734,15.082 h 0.215 v 37.867 h -0.215 z"
                                   style="fill:#08306b;fill-opacity:1;fill-rule:nonzero;stroke:none"
                                   id="path192" /><path
                                   d="m 29.949,15.082 h 0.219 v 37.867 h -0.219 z"
                                   style="fill:#08519c;fill-opacity:1;fill-rule:nonzero;stroke:none"
                                   id="path194" /><path
                                   d="m 30.168,15.082 h 0.219 v 37.867 h -0.219 z"
                                   style="fill:#4292c6;fill-opacity:1;fill-rule:nonzero;stroke:none"
                                   id="path196" /><path
                                   d="m 30.387,15.082 h 0.215 v 37.867 h -0.215 z"
                                   style="fill:#4292c6;fill-opacity:1;fill-rule:nonzero;stroke:none"
                                   id="path198" /><path
                                   d="m 30.602,15.082 h 0.219 v 37.867 h -0.219 z"
                                   style="fill:#08306b;fill-opacity:1;fill-rule:nonzero;stroke:none"
                                   id="path200" /><path
                                   d="m 30.82,15.082 h 0.219 V 52.949 H 30.82 Z"
                                   style="fill:#2171b5;fill-opacity:1;fill-rule:nonzero;stroke:none"
                                   id="path202" /><path
                                   d="m 31.039,15.082 h 0.219 v 37.867 h -0.219 z"
                                   style="fill:#4292c6;fill-opacity:1;fill-rule:nonzero;stroke:none"
                                   id="path204" /><path
                                   d="m 31.258,15.082 h 0.215 v 37.867 h -0.215 z"
                                   style="fill:#2171b5;fill-opacity:1;fill-rule:nonzero;stroke:none"
                                   id="path206" /><path
                                   d="m 31.473,15.082 h 0.219 v 37.867 h -0.219 z"
                                   style="fill:#08519c;fill-opacity:1;fill-rule:nonzero;stroke:none"
                                   id="path208" /><path
                                   d="M 31.691,15.082 H 31.91 V 52.949 H 31.691 Z"
                                   style="fill:#08306b;fill-opacity:1;fill-rule:nonzero;stroke:none"
                                   id="path210" /><path
                                   d="m 31.91,15.082 h 0.215 V 52.949 H 31.91 Z"
                                   style="fill:#08306b;fill-opacity:1;fill-rule:nonzero;stroke:none"
                                   id="path212" /><path
                                   d="m 32.125,15.082 h 0.219 v 37.867 h -0.219 z"
                                   style="fill:#08519c;fill-opacity:1;fill-rule:nonzero;stroke:none"
                                   id="path214" /><path
                                   d="m 32.344,15.082 h 0.219 v 37.867 h -0.219 z"
                                   style="fill:#2171b5;fill-opacity:1;fill-rule:nonzero;stroke:none"
                                   id="path216" /><path
                                   d="m 32.562,15.082 h 0.219 v 37.867 h -0.219 z"
                                   style="fill:#08306b;fill-opacity:1;fill-rule:nonzero;stroke:none"
                                   id="path218" /><path
                                   d="m 32.781,15.082 h 0.215 v 37.867 h -0.215 z"
                                   style="fill:#08306b;fill-opacity:1;fill-rule:nonzero;stroke:none"
                                   id="path220" /><path
                                   d="m 32.996,15.082 h 0.219 v 37.867 h -0.219 z"
                                   style="fill:#08306b;fill-opacity:1;fill-rule:nonzero;stroke:none"
                                   id="path222" /><path
                                   d="m 33.215,15.082 h 0.219 v 37.867 h -0.219 z"
                                   style="fill:#08306b;fill-opacity:1;fill-rule:nonzero;stroke:none"
                                   id="path224" /><path
                                   d="m 33.434,15.082 h 0.215 v 37.867 h -0.215 z"
                                   style="fill:#08306b;fill-opacity:1;fill-rule:nonzero;stroke:none"
                                   id="path226" /><path
                                   d="m 33.648,15.082 h 0.219 v 37.867 h -0.219 z"
                                   style="fill:#08306b;fill-opacity:1;fill-rule:nonzero;stroke:none"
                                   id="path228" /><path
                                   d="m 33.867,15.082 h 0.219 v 37.867 h -0.219 z"
                                   style="fill:#08306b;fill-opacity:1;fill-rule:nonzero;stroke:none"
                                   id="path230" /><path
                                   d="m 34.086,15.082 h 0.219 v 37.867 h -0.219 z"
                                   style="fill:#4292c6;fill-opacity:1;fill-rule:nonzero;stroke:none"
                                   id="path232" /><path
                                   d="M 34.305,15.082 H 34.52 V 52.949 H 34.305 Z"
                                   style="fill:#6baed6;fill-opacity:1;fill-rule:nonzero;stroke:none"
                                   id="path234" /><path
                                   d="m 34.52,15.082 h 0.219 V 52.949 H 34.52 Z"
                                   style="fill:#08519c;fill-opacity:1;fill-rule:nonzero;stroke:none"
                                   id="path236" /><path
                                   d="m 34.738,15.082 h 0.219 v 37.867 h -0.219 z"
                                   style="fill:#08306b;fill-opacity:1;fill-rule:nonzero;stroke:none"
                                   id="path238" /><path
                                   d="m 34.957,15.082 h 0.215 v 37.867 h -0.215 z"
                                   style="fill:#08519c;fill-opacity:1;fill-rule:nonzero;stroke:none"
                                   id="path240" /><path
                                   d="m 35.172,15.082 h 0.219 v 37.867 h -0.219 z"
                                   style="fill:#2171b5;fill-opacity:1;fill-rule:nonzero;stroke:none"
                                   id="path242" /><path
                                   d="M 35.391,15.082 H 35.61 V 52.949 H 35.391 Z"
                                   style="fill:#2171b5;fill-opacity:1;fill-rule:nonzero;stroke:none"
                                   id="path244" /><path
                                   d="m 35.609,15.082 h 0.219 v 37.867 h -0.219 z"
                                   style="fill:#4292c6;fill-opacity:1;fill-rule:nonzero;stroke:none"
                                   id="path246" /><path
                                   d="m 35.828,15.082 h 0.215 v 37.867 h -0.215 z"
                                   style="fill:#2171b5;fill-opacity:1;fill-rule:nonzero;stroke:none"
                                   id="path248" /><path
                                   d="m 36.043,15.082 h 0.219 v 37.867 h -0.219 z"
                                   style="fill:#2171b5;fill-opacity:1;fill-rule:nonzero;stroke:none"
                                   id="path250" /><path
                                   d="m 36.262,15.082 h 0.219 v 37.867 h -0.219 z"
                                   style="fill:#2171b5;fill-opacity:1;fill-rule:nonzero;stroke:none"
                                   id="path252" /><path
                                   d="m 36.48,15.082 h 0.215 V 52.949 H 36.48 Z"
                                   style="fill:#4292c6;fill-opacity:1;fill-rule:nonzero;stroke:none"
                                   id="path254" /><path
                                   d="m 36.695,15.082 h 0.219 v 37.867 h -0.219 z"
                                   style="fill:#6baed6;fill-opacity:1;fill-rule:nonzero;stroke:none"
                                   id="path256" /><path
                                   d="m 36.914,15.082 h 0.219 v 37.867 h -0.219 z"
                                   style="fill:#4292c6;fill-opacity:1;fill-rule:nonzero;stroke:none"
                                   id="path258" /><path
                                   d="m 37.133,15.082 h 0.219 v 37.867 h -0.219 z"
                                   style="fill:#4292c6;fill-opacity:1;fill-rule:nonzero;stroke:none"
                                   id="path260" /><path
                                   d="m 37.352,15.082 h 0.215 v 37.867 h -0.215 z"
                                   style="fill:#08519c;fill-opacity:1;fill-rule:nonzero;stroke:none"
                                   id="path262" /><path
                                   d="m 37.566,15.082 h 0.219 v 37.867 h -0.219 z"
                                   style="fill:#6baed6;fill-opacity:1;fill-rule:nonzero;stroke:none"
                                   id="path264" /><path
                                   d="m 37.785,15.082 h 0.219 v 37.867 h -0.219 z"
                                   style="fill:#9ecae1;fill-opacity:1;fill-rule:nonzero;stroke:none"
                                   id="path266" /><path
                                   d="m 38.004,15.082 h 0.219 v 37.867 h -0.219 z"
                                   style="fill:#6baed6;fill-opacity:1;fill-rule:nonzero;stroke:none"
                                   id="path268" /><path
                                   d="m 38.223,15.082 h 0.215 v 37.867 h -0.215 z"
                                   style="fill:#2171b5;fill-opacity:1;fill-rule:nonzero;stroke:none"
                                   id="path270" /><path
                                   d="m 38.438,15.082 h 0.219 v 37.867 h -0.219 z"
                                   style="fill:#6baed6;fill-opacity:1;fill-rule:nonzero;stroke:none"
                                   id="path272" /><path
                                   d="m 38.656,15.082 h 0.219 v 37.867 h -0.219 z"
                                   style="fill:#4292c6;fill-opacity:1;fill-rule:nonzero;stroke:none"
                                   id="path274" /><path
                                   d="M 38.875,15.082 H 39.09 V 52.949 H 38.875 Z"
                                   style="fill:#6baed6;fill-opacity:1;fill-rule:nonzero;stroke:none"
                                   id="path276" /><path
                                   d="m 39.09,15.082 h 0.219 V 52.949 H 39.09 Z"
                                   style="fill:#c6dbef;fill-opacity:1;fill-rule:nonzero;stroke:none"
                                   id="path278" /><path
                                   d="m 39.309,15.082 h 0.219 v 37.867 h -0.219 z"
                                   style="fill:#c6dbef;fill-opacity:1;fill-rule:nonzero;stroke:none"
                                   id="path280" /><path
                                   d="m 39.527,15.082 h 0.219 v 37.867 h -0.219 z"
                                   style="fill:#9ecae1;fill-opacity:1;fill-rule:nonzero;stroke:none"
                                   id="path282" /><path
                                   d="m 39.746,15.082 h 0.215 v 37.867 h -0.215 z"
                                   style="fill:#deebf7;fill-opacity:1;fill-rule:nonzero;stroke:none"
                                   id="path284" /><path
                                   d="M 39.961,15.082 H 40.18 V 52.949 H 39.961 Z"
                                   style="fill:#c6dbef;fill-opacity:1;fill-rule:nonzero;stroke:none"
                                   id="path286" /><path
                                   d="m 40.18,15.082 h 0.219 V 52.949 H 40.18 Z"
                                   style="fill:#c6dbef;fill-opacity:1;fill-rule:nonzero;stroke:none"
                                   id="path288" /><path
                                   d="m 40.398,15.082 h 0.215 v 37.867 h -0.215 z"
                                   style="fill:#c6dbef;fill-opacity:1;fill-rule:nonzero;stroke:none"
                                   id="path290" /><path
                                   d="m 40.613,15.082 h 0.219 v 37.867 h -0.219 z"
                                   style="fill:#deebf7;fill-opacity:1;fill-rule:nonzero;stroke:none"
                                   id="path292" /><path
                                   d="m 40.832,15.082 h 0.219 v 37.867 h -0.219 z"
                                   style="fill:#c6dbef;fill-opacity:1;fill-rule:nonzero;stroke:none"
                                   id="path294" /><path
                                   d="M 41.051,15.082 H 41.27 V 52.949 H 41.051 Z"
                                   style="fill:#6baed6;fill-opacity:1;fill-rule:nonzero;stroke:none"
                                   id="path296" /><path
                                   d="m 41.27,15.082 h 0.215 V 52.949 H 41.27 Z"
                                   style="fill:#9ecae1;fill-opacity:1;fill-rule:nonzero;stroke:none"
                                   id="path298" /><path
                                   d="m 41.484,15.082 h 0.219 v 37.867 h -0.219 z"
                                   style="fill:#6baed6;fill-opacity:1;fill-rule:nonzero;stroke:none"
                                   id="path300" /><path
                                   d="m 41.703,15.082 h 0.219 v 37.867 h -0.219 z"
                                   style="fill:#6baed6;fill-opacity:1;fill-rule:nonzero;stroke:none"
                                   id="path302" /><path
                                   d="m 41.922,15.082 h 0.215 v 37.867 h -0.215 z"
                                   style="fill:#4292c6;fill-opacity:1;fill-rule:nonzero;stroke:none"
                                   id="path304" /><path
                                   d="m 42.137,15.082 h 0.219 v 37.867 h -0.219 z"
                                   style="fill:#9ecae1;fill-opacity:1;fill-rule:nonzero;stroke:none"
                                   id="path306" /><path
                                   d="m 42.355,15.082 h 0.219 v 37.867 h -0.219 z"
                                   style="fill:#c6dbef;fill-opacity:1;fill-rule:nonzero;stroke:none"
                                   id="path308" /><path
                                   d="m 42.574,15.082 h 0.219 v 37.867 h -0.219 z"
                                   style="fill:#deebf7;fill-opacity:1;fill-rule:nonzero;stroke:none"
                                   id="path310" /><path
                                   d="m 42.793,15.082 h 0.215 v 37.867 h -0.215 z"
                                   style="fill:#6baed6;fill-opacity:1;fill-rule:nonzero;stroke:none"
                                   id="path312" /><path
                                   d="m 43.008,15.082 h 0.219 v 37.867 h -0.219 z"
                                   style="fill:#4292c6;fill-opacity:1;fill-rule:nonzero;stroke:none"
                                   id="path314" /><path
                                   d="m 43.227,15.082 h 0.219 v 37.867 h -0.219 z"
                                   style="fill:#4292c6;fill-opacity:1;fill-rule:nonzero;stroke:none"
                                   id="path316" /><path
                                   d="M 43.445,15.082 H 43.66 V 52.949 H 43.445 Z"
                                   style="fill:#9ecae1;fill-opacity:1;fill-rule:nonzero;stroke:none"
                                   id="path318" /><path
                                   d="m 43.66,15.082 h 0.219 V 52.949 H 43.66 Z"
                                   style="fill:#c6dbef;fill-opacity:1;fill-rule:nonzero;stroke:none"
                                   id="path320" /><path
                                   d="m 43.879,15.082 h 0.219 v 37.867 h -0.219 z"
                                   style="fill:#9ecae1;fill-opacity:1;fill-rule:nonzero;stroke:none"
                                   id="path322" /><path
                                   d="m 44.098,15.082 h 0.219 v 37.867 h -0.219 z"
                                   style="fill:#6baed6;fill-opacity:1;fill-rule:nonzero;stroke:none"
                                   id="path324" /><path
                                   d="m 44.316,15.082 h 0.215 v 37.867 h -0.215 z"
                                   style="fill:#c6dbef;fill-opacity:1;fill-rule:nonzero;stroke:none"
                                   id="path326" /><path
                                   d="M 44.531,15.082 H 44.75 V 52.949 H 44.531 Z"
                                   style="fill:#9ecae1;fill-opacity:1;fill-rule:nonzero;stroke:none"
                                   id="path328" /><path
                                   d="m 44.75,15.082 h 0.219 V 52.949 H 44.75 Z"
                                   style="fill:#9ecae1;fill-opacity:1;fill-rule:nonzero;stroke:none"
                                   id="path330" /><path
                                   d="m 44.969,15.082 h 0.215 v 37.867 h -0.215 z"
                                   style="fill:#2171b5;fill-opacity:1;fill-rule:nonzero;stroke:none"
                                   id="path332" /><path
                                   d="m 45.184,15.082 h 0.219 v 37.867 h -0.219 z"
                                   style="fill:#4292c6;fill-opacity:1;fill-rule:nonzero;stroke:none"
                                   id="path334" /><path
                                   d="m 45.402,15.082 h 0.219 v 37.867 h -0.219 z"
                                   style="fill:#6baed6;fill-opacity:1;fill-rule:nonzero;stroke:none"
                                   id="path336" /><path
                                   d="M 45.621,15.082 H 45.84 V 52.949 H 45.621 Z"
                                   style="fill:#6baed6;fill-opacity:1;fill-rule:nonzero;stroke:none"
                                   id="path338" /><path
                                   d="m 45.84,15.082 h 0.215 V 52.949 H 45.84 Z"
                                   style="fill:#6baed6;fill-opacity:1;fill-rule:nonzero;stroke:none"
                                   id="path340" /><path
                                   d="m 46.055,15.082 h 0.219 v 37.867 h -0.219 z"
                                   style="fill:#9ecae1;fill-opacity:1;fill-rule:nonzero;stroke:none"
                                   id="path342" /><path
                                   d="m 46.273,15.082 h 0.219 v 37.867 h -0.219 z"
                                   style="fill:#9ecae1;fill-opacity:1;fill-rule:nonzero;stroke:none"
                                   id="path344" /><path
                                   d="m 46.492,15.082 h 0.215 v 37.867 h -0.215 z"
                                   style="fill:#4292c6;fill-opacity:1;fill-rule:nonzero;stroke:none"
                                   id="path346" /><path
                                   d="m 46.707,15.082 h 0.219 v 37.867 h -0.219 z"
                                   style="fill:#9ecae1;fill-opacity:1;fill-rule:nonzero;stroke:none"
                                   id="path348" /><path
                                   d="m 46.926,15.082 h 0.219 v 37.867 h -0.219 z"
                                   style="fill:#c6dbef;fill-opacity:1;fill-rule:nonzero;stroke:none"
                                   id="path350" /><path
                                   d="m 47.145,15.082 h 0.219 v 37.867 h -0.219 z"
                                   style="fill:#6baed6;fill-opacity:1;fill-rule:nonzero;stroke:none"
                                   id="path352" /><path
                                   d="m 47.363,15.082 h 0.215 v 37.867 h -0.215 z"
                                   style="fill:#6baed6;fill-opacity:1;fill-rule:nonzero;stroke:none"
                                   id="path354" /><path
                                   d="m 47.578,15.082 h 0.219 v 37.867 h -0.219 z"
                                   style="fill:#4292c6;fill-opacity:1;fill-rule:nonzero;stroke:none"
                                   id="path356" /><path
                                   d="m 47.797,15.082 h 0.219 v 37.867 h -0.219 z"
                                   style="fill:#deebf7;fill-opacity:1;fill-rule:nonzero;stroke:none"
                                   id="path358" /><path
                                   d="m 48.016,15.082 h 0.219 v 37.867 h -0.219 z"
                                   style="fill:#c6dbef;fill-opacity:1;fill-rule:nonzero;stroke:none"
                                   id="path360" /><path
                                   d="m 48.234,15.082 h 0.215 v 37.867 h -0.215 z"
                                   style="fill:#deebf7;fill-opacity:1;fill-rule:nonzero;stroke:none"
                                   id="path362" /><path
                                   d="m 48.449,15.082 h 0.219 v 37.867 h -0.219 z"
                                   style="fill:#fee0d2;fill-opacity:1;fill-rule:nonzero;stroke:none"
                                   id="path364" /><path
                                   d="m 48.668,15.082 h 0.219 v 37.867 h -0.219 z"
                                   style="fill:#fcbba1;fill-opacity:1;fill-rule:nonzero;stroke:none"
                                   id="path366" /><path
                                   d="m 48.887,15.082 h 0.215 v 37.867 h -0.215 z"
                                   style="fill:#c6dbef;fill-opacity:1;fill-rule:nonzero;stroke:none"
                                   id="path368" /><path
                                   d="m 49.102,15.082 h 0.219 v 37.867 h -0.219 z"
                                   style="fill:#fee0d2;fill-opacity:1;fill-rule:nonzero;stroke:none"
                                   id="path370" /><path
                                   d="m 49.32,15.082 h 0.219 V 52.949 H 49.32 Z"
                                   style="fill:#c6dbef;fill-opacity:1;fill-rule:nonzero;stroke:none"
                                   id="path372" /><path
                                   d="m 49.539,15.082 h 0.219 v 37.867 h -0.219 z"
                                   style="fill:#c6dbef;fill-opacity:1;fill-rule:nonzero;stroke:none"
                                   id="path374" /><path
                                   d="m 49.758,15.082 h 0.215 v 37.867 h -0.215 z"
                                   style="fill:#deebf7;fill-opacity:1;fill-rule:nonzero;stroke:none"
                                   id="path376" /><path
                                   d="m 49.973,15.082 h 0.219 v 37.867 h -0.219 z"
                                   style="fill:#fcbba1;fill-opacity:1;fill-rule:nonzero;stroke:none"
                                   id="path378" /><path
                                   d="M 50.191,15.082 H 50.41 V 52.949 H 50.191 Z"
                                   style="fill:#fcbba1;fill-opacity:1;fill-rule:nonzero;stroke:none"
                                   id="path380" /><path
                                   d="m 50.41,15.082 h 0.215 V 52.949 H 50.41 Z"
                                   style="fill:#fee0d2;fill-opacity:1;fill-rule:nonzero;stroke:none"
                                   id="path382" /><path
                                   d="m 50.625,15.082 h 0.219 v 37.867 h -0.219 z"
                                   style="fill:#fc9272;fill-opacity:1;fill-rule:nonzero;stroke:none"
                                   id="path384" /><path
                                   d="m 50.844,15.082 h 0.219 v 37.867 h -0.219 z"
                                   style="fill:#fc9272;fill-opacity:1;fill-rule:nonzero;stroke:none"
                                   id="path386" /><path
                                   d="m 51.062,15.082 h 0.219 v 37.867 h -0.219 z"
                                   style="fill:#deebf7;fill-opacity:1;fill-rule:nonzero;stroke:none"
                                   id="path388" /><path
                                   d="m 51.281,15.082 h 0.215 v 37.867 h -0.215 z"
                                   style="fill:#fee0d2;fill-opacity:1;fill-rule:nonzero;stroke:none"
                                   id="path390" /><path
                                   d="m 51.496,15.082 h 0.219 v 37.867 h -0.219 z"
                                   style="fill:#fee0d2;fill-opacity:1;fill-rule:nonzero;stroke:none"
                                   id="path392" /><path
                                   d="m 51.715,15.082 h 0.219 v 37.867 h -0.219 z"
                                   style="fill:#fc9272;fill-opacity:1;fill-rule:nonzero;stroke:none"
                                   id="path394" /><path
                                   d="m 51.934,15.082 h 0.215 v 37.867 h -0.215 z"
                                   style="fill:#fcbba1;fill-opacity:1;fill-rule:nonzero;stroke:none"
                                   id="path396" /><path
                                   d="m 52.148,15.082 h 0.219 v 37.867 h -0.219 z"
                                   style="fill:#fb6a4a;fill-opacity:1;fill-rule:nonzero;stroke:none"
                                   id="path398" /><path
                                   d="m 52.367,15.082 h 0.219 v 37.867 h -0.219 z"
                                   style="fill:#ef3b2c;fill-opacity:1;fill-rule:nonzero;stroke:none"
                                   id="path400" /><path
                                   d="m 52.586,15.082 h 0.219 v 37.867 h -0.219 z"
                                   style="fill:#fcbba1;fill-opacity:1;fill-rule:nonzero;stroke:none"
                                   id="path402" /><path
                                   d="M 52.805,15.082 H 53.02 V 52.949 H 52.805 Z"
                                   style="fill:#fc9272;fill-opacity:1;fill-rule:nonzero;stroke:none"
                                   id="path404" /><path
                                   d="m 53.02,15.082 h 0.219 V 52.949 H 53.02 Z"
                                   style="fill:#fb6a4a;fill-opacity:1;fill-rule:nonzero;stroke:none"
                                   id="path406" /><path
                                   d="m 53.238,15.082 h 0.219 v 37.867 h -0.219 z"
                                   style="fill:#ef3b2c;fill-opacity:1;fill-rule:nonzero;stroke:none"
                                   id="path408" /><path
                                   d="m 53.457,15.082 h 0.215 v 37.867 h -0.215 z"
                                   style="fill:#ef3b2c;fill-opacity:1;fill-rule:nonzero;stroke:none"
                                   id="path410" /><path
                                   d="m 53.672,15.082 h 0.219 v 37.867 h -0.219 z"
                                   style="fill:#fb6a4a;fill-opacity:1;fill-rule:nonzero;stroke:none"
                                   id="path412" /><path
                                   d="M 53.891,15.082 H 54.11 V 52.949 H 53.891 Z"
                                   style="fill:#cb181d;fill-opacity:1;fill-rule:nonzero;stroke:none"
                                   id="path414" /><path
                                   d="m 54.109,15.082 h 0.219 v 37.867 h -0.219 z"
                                   style="fill:#ef3b2c;fill-opacity:1;fill-rule:nonzero;stroke:none"
                                   id="path416" /><path
                                   d="m 54.328,15.082 h 0.215 v 37.867 h -0.215 z"
                                   style="fill:#cb181d;fill-opacity:1;fill-rule:nonzero;stroke:none"
                                   id="path418" /><path
                                   d="m 54.543,15.082 h 0.219 v 37.867 h -0.219 z"
                                   style="fill:#fb6a4a;fill-opacity:1;fill-rule:nonzero;stroke:none"
                                   id="path420" /><path
                                   d="m 54.762,15.082 h 0.219 v 37.867 h -0.219 z"
                                   style="fill:#cb181d;fill-opacity:1;fill-rule:nonzero;stroke:none"
                                   id="path422" /><path
                                   d="m 54.98,15.082 h 0.215 V 52.949 H 54.98 Z"
                                   style="fill:#a50f15;fill-opacity:1;fill-rule:nonzero;stroke:none"
                                   id="path424" /><path
                                   d="m 55.195,15.082 h 0.219 v 37.867 h -0.219 z"
                                   style="fill:#ef3b2c;fill-opacity:1;fill-rule:nonzero;stroke:none"
                                   id="path426" /><path
                                   d="m 55.414,15.082 h 0.219 v 37.867 h -0.219 z"
                                   style="fill:#ef3b2c;fill-opacity:1;fill-rule:nonzero;stroke:none"
                                   id="path428" /><path
                                   d="m 55.633,15.082 h 0.219 v 37.867 h -0.219 z"
                                   style="fill:#cb181d;fill-opacity:1;fill-rule:nonzero;stroke:none"
                                   id="path430" /><path
                                   d="m 55.852,15.082 h 0.215 v 37.867 h -0.215 z"
                                   style="fill:#cb181d;fill-opacity:1;fill-rule:nonzero;stroke:none"
                                   id="path432" /><path
                                   d="m 56.066,15.082 h 0.219 v 37.867 h -0.219 z"
                                   style="fill:#67000d;fill-opacity:1;fill-rule:nonzero;stroke:none"
                                   id="path434" /><path
                                   d="m 56.285,15.082 h 0.219 v 37.867 h -0.219 z"
                                   style="fill:#67000d;fill-opacity:1;fill-rule:nonzero;stroke:none"
                                   id="path436" /><path
                                   d="m 56.504,15.082 h 0.215 v 37.867 h -0.215 z"
                                   style="fill:#67000d;fill-opacity:1;fill-rule:nonzero;stroke:none"
                                   id="path438" /><path
                                   d="m 56.719,15.082 h 0.219 v 37.867 h -0.219 z"
                                   style="fill:#a50f15;fill-opacity:1;fill-rule:nonzero;stroke:none"
                                   id="path440" /><path
                                   d="m 56.938,15.082 h 0.219 v 37.867 h -0.219 z"
                                   style="fill:#67000d;fill-opacity:1;fill-rule:nonzero;stroke:none"
                                   id="path442" /><path
                                   d="m 57.156,15.082 h 0.219 v 37.867 h -0.219 z"
                                   style="fill:#67000d;fill-opacity:1;fill-rule:nonzero;stroke:none"
                                   id="path444" /><path
                                   d="M 57.375,15.082 H 57.59 V 52.949 H 57.375 Z"
                                   style="fill:#a50f15;fill-opacity:1;fill-rule:nonzero;stroke:none"
                                   id="path446" /><path
                                   d="m 57.59,15.082 h 0.219 V 52.949 H 57.59 Z"
                                   style="fill:#67000d;fill-opacity:1;fill-rule:nonzero;stroke:none"
                                   id="path448" /><path
                                   d="m 57.809,15.082 h 0.219 v 37.867 h -0.219 z"
                                   style="fill:#67000d;fill-opacity:1;fill-rule:nonzero;stroke:none"
                                   id="path450" /></g></g></g></g></g></g></g></g></g></g></g></g></g></g></g></g></g><g
                 id="g452"><path
                   d="m 19.527,50.688 0.672,-0.641 c 0.086,0.25 0.188,0.473 0.313,0.672 0.117,0.195 0.246,0.367 0.39,0.515 0.188,0.196 0.356,0.313 0.5,0.344 0.137,0.039 0.258,0.008 0.36,-0.094 0.086,-0.086 0.125,-0.179 0.125,-0.281 -0.008,-0.105 -0.078,-0.258 -0.203,-0.453 l -0.266,-0.422 c -0.281,-0.414 -0.422,-0.766 -0.422,-1.047 0,-0.289 0.133,-0.562 0.391,-0.812 0.343,-0.332 0.703,-0.473 1.078,-0.422 0.367,0.043 0.75,0.273 1.156,0.687 0.199,0.2 0.375,0.414 0.531,0.641 0.149,0.23 0.282,0.48 0.407,0.75 l -0.672,0.656 c -0.094,-0.293 -0.203,-0.554 -0.328,-0.797 -0.133,-0.238 -0.286,-0.441 -0.454,-0.609 -0.164,-0.176 -0.316,-0.285 -0.453,-0.328 -0.144,-0.039 -0.273,-0.004 -0.39,0.109 -0.102,0.094 -0.149,0.203 -0.141,0.328 0.012,0.118 0.086,0.289 0.219,0.516 l 0.25,0.375 c 0.23,0.375 0.344,0.703 0.344,0.984 -0.008,0.289 -0.141,0.563 -0.391,0.813 -0.301,0.301 -0.633,0.43 -1,0.39 -0.363,-0.042 -0.734,-0.257 -1.109,-0.64 -0.164,-0.168 -0.321,-0.356 -0.469,-0.563 -0.156,-0.211 -0.301,-0.433 -0.438,-0.671 z"
                   style="fill:#ffffff;fill-opacity:1;fill-rule:nonzero;stroke:none"
                   id="path454" /><path
                   d="m 20.18,44.715 c 0.199,0.117 0.382,0.25 0.547,0.406 0.168,0.156 0.324,0.34 0.468,0.547 0.407,0.594 0.563,1.184 0.469,1.766 -0.094,0.57 -0.426,1.054 -1,1.453 -0.57,0.383 -1.144,0.515 -1.719,0.39 C 18.375,49.16 17.883,48.809 17.477,48.215 17.332,48.004 17.219,47.801 17.133,47.59 17.051,47.371 17,47.148 16.977,46.918 l 0.734,-0.516 c 0,0.25 0.031,0.481 0.094,0.688 0.062,0.211 0.164,0.406 0.297,0.594 0.218,0.32 0.5,0.504 0.843,0.546 0.336,0.04 0.688,-0.062 1.063,-0.312 0.375,-0.258 0.605,-0.551 0.687,-0.875 0.075,-0.332 0,-0.66 -0.218,-0.984 C 20.344,45.871 20.191,45.711 20.023,45.574 19.859,45.43 19.66,45.316 19.43,45.23 Z"
                   style="fill:#ffffff;fill-opacity:1;fill-rule:nonzero;stroke:none"
                   id="path456" /><path
                   d="m 16.25,45.984 -0.5,-1.015 3.891,-1.953 0.5,1.015 z"
                   style="fill:#ffffff;fill-opacity:1;fill-rule:nonzero;stroke:none"
                   id="path458" /><path
                   d="m 15.27,44 -1,-2.859 0.796,-0.282 0.625,1.797 0.766,-0.265 -0.594,-1.688 0.813,-0.297 0.594,1.688 0.937,-0.328 -0.656,-1.875 0.797,-0.282 1.031,2.938 z"
                   style="fill:#ffffff;fill-opacity:1;fill-rule:nonzero;stroke:none"
                   id="path460" /><path
                   d="m 13.906,39.832 -0.203,-1.25 2.719,-2 -2.953,0.453 -0.172,-1.062 4.312,-0.672 0.203,1.234 -2.734,2.031 2.969,-0.453 0.172,1.047 z"
                   style="fill:#ffffff;fill-opacity:1;fill-rule:nonzero;stroke:none"
                   id="path462" /><path
                   d="m 13.273,35.203 0.094,-4.015 0.844,0.031 -0.031,1.437 3.515,0.078 -0.031,1.125 -3.516,-0.078 -0.031,1.453 z"
                   style="fill:#ffffff;fill-opacity:1;fill-rule:nonzero;stroke:none"
                   id="path464" /><path
                   d="m 13.516,30.762 0.156,-1.11 4.312,0.625 -0.156,1.11 z"
                   style="fill:#ffffff;fill-opacity:1;fill-rule:nonzero;stroke:none"
                   id="path466" /><path
                   d="m 14.773,25.715 0.891,0.234 c -0.164,0.199 -0.305,0.403 -0.422,0.61 -0.113,0.211 -0.195,0.414 -0.25,0.609 -0.07,0.262 -0.086,0.461 -0.047,0.594 0.043,0.136 0.137,0.226 0.282,0.265 0.117,0.032 0.214,0.016 0.296,-0.047 0.086,-0.062 0.18,-0.195 0.282,-0.406 l 0.234,-0.437 c 0.211,-0.446 0.438,-0.739 0.688,-0.875 0.25,-0.145 0.554,-0.172 0.906,-0.078 0.457,0.125 0.758,0.355 0.906,0.687 0.156,0.336 0.16,0.781 0.016,1.344 -0.075,0.273 -0.172,0.539 -0.297,0.797 -0.125,0.25 -0.274,0.496 -0.438,0.734 l -0.906,-0.25 c 0.211,-0.226 0.387,-0.457 0.531,-0.687 0.137,-0.227 0.235,-0.461 0.297,-0.704 0.063,-0.226 0.074,-0.414 0.031,-0.562 -0.05,-0.145 -0.148,-0.238 -0.296,-0.281 -0.133,-0.032 -0.243,-0.008 -0.329,0.062 -0.093,0.063 -0.207,0.211 -0.343,0.438 l -0.203,0.406 c -0.207,0.387 -0.43,0.652 -0.672,0.797 -0.25,0.148 -0.547,0.172 -0.891,0.078 -0.414,-0.102 -0.695,-0.32 -0.844,-0.656 -0.156,-0.332 -0.164,-0.754 -0.031,-1.266 0.063,-0.238 0.148,-0.473 0.25,-0.703 0.106,-0.227 0.227,-0.461 0.359,-0.703 z"
                   style="fill:#ffffff;fill-opacity:1;fill-rule:nonzero;stroke:none"
                   id="path468" /><path
                   d="m 14.816,25.117 1.641,-3.656 0.781,0.344 -0.593,1.312 3.203,1.438 -0.453,1.015 -3.204,-1.437 -0.593,1.328 z"
                   style="fill:#ffffff;fill-opacity:1;fill-rule:nonzero;stroke:none"
                   id="path470" /><path
                   d="m 18.555,18.582 0.781,0.5 c -0.238,0.137 -0.441,0.289 -0.609,0.453 -0.165,0.156 -0.305,0.32 -0.422,0.485 -0.145,0.23 -0.219,0.418 -0.219,0.562 -0.008,0.137 0.047,0.25 0.172,0.344 0.094,0.062 0.195,0.078 0.297,0.047 0.105,-0.032 0.242,-0.133 0.406,-0.313 l 0.359,-0.328 c 0.344,-0.363 0.653,-0.57 0.922,-0.625 0.281,-0.062 0.57,0.008 0.875,0.203 0.406,0.262 0.625,0.578 0.656,0.953 0.039,0.367 -0.101,0.789 -0.421,1.266 -0.157,0.242 -0.336,0.461 -0.532,0.656 -0.187,0.199 -0.406,0.391 -0.656,0.578 l -0.781,-0.515 c 0.281,-0.157 0.527,-0.321 0.734,-0.5 0.207,-0.176 0.375,-0.368 0.5,-0.578 0.133,-0.196 0.203,-0.368 0.203,-0.516 0.008,-0.156 -0.047,-0.274 -0.172,-0.359 -0.117,-0.071 -0.23,-0.094 -0.343,-0.063 -0.117,0.031 -0.266,0.141 -0.453,0.328 l -0.329,0.313 c -0.32,0.312 -0.617,0.5 -0.89,0.562 -0.281,0.055 -0.571,-0.019 -0.875,-0.219 -0.352,-0.226 -0.551,-0.523 -0.594,-0.89 -0.039,-0.364 0.086,-0.766 0.375,-1.203 0.137,-0.207 0.289,-0.407 0.453,-0.594 0.156,-0.188 0.344,-0.367 0.563,-0.547 z"
                   style="fill:#ffffff;fill-opacity:1;fill-rule:nonzero;stroke:none"
                   id="path472" /><path
                   d="m 20.34,16.277 2.203,-2.093 0.578,0.609 -1.375,1.312 0.563,0.594 1.296,-1.234 0.594,0.625 -1.297,1.234 1.266,1.328 -0.828,0.782 z"
                   style="fill:#ffffff;fill-opacity:1;fill-rule:nonzero;stroke:none"
                   id="path474" /><path
                   d="m 25.512,12.957 c -0.289,0.188 -0.446,0.445 -0.469,0.766 -0.02,0.312 0.094,0.664 0.344,1.047 0.25,0.386 0.519,0.636 0.812,0.75 0.289,0.105 0.582,0.062 0.875,-0.125 0.281,-0.188 0.43,-0.438 0.453,-0.75 0.032,-0.313 -0.078,-0.661 -0.328,-1.047 -0.25,-0.383 -0.527,-0.633 -0.828,-0.75 -0.293,-0.114 -0.578,-0.078 -0.859,0.109 z m -0.438,-0.672 c 0.582,-0.375 1.145,-0.5 1.688,-0.375 0.55,0.117 1.019,0.469 1.406,1.063 0.383,0.593 0.52,1.168 0.406,1.718 -0.117,0.543 -0.465,1 -1.047,1.375 -0.586,0.387 -1.156,0.524 -1.718,0.407 -0.551,-0.114 -1.02,-0.469 -1.407,-1.063 -0.382,-0.594 -0.515,-1.164 -0.39,-1.719 0.125,-0.55 0.48,-1.019 1.062,-1.406 z"
                   style="fill:#ffffff;fill-opacity:1;fill-rule:nonzero;stroke:none"
                   id="path476" /><path
                   d="m 30.273,11.859 c 0.227,-0.093 0.375,-0.195 0.438,-0.312 0.062,-0.125 0.055,-0.285 -0.016,-0.485 -0.074,-0.175 -0.172,-0.285 -0.297,-0.328 -0.125,-0.039 -0.304,-0.015 -0.531,0.078 l -0.422,0.172 0.407,1.047 z m -0.14,0.875 0.609,1.547 -1.047,0.407 L 28.102,10.625 29.695,10 c 0.532,-0.207 0.953,-0.27 1.266,-0.188 0.32,0.086 0.562,0.321 0.719,0.704 0.101,0.273 0.125,0.515 0.062,0.734 -0.062,0.219 -0.211,0.418 -0.437,0.594 0.156,-0.008 0.312,0.023 0.468,0.094 0.165,0.062 0.352,0.195 0.563,0.39 l 1.016,0.922 -1.11,0.438 -0.875,-0.813 C 31.168,12.711 31,12.609 30.867,12.578 30.742,12.539 30.594,12.547 30.43,12.609 Z"
                   style="fill:#ffffff;fill-opacity:1;fill-rule:nonzero;stroke:none"
                   id="path478" /><path
                   d="m 34.336,8.625 3,-0.391 0.109,0.844 -1.89,0.25 0.109,0.797 1.781,-0.234 0.125,0.859 -1.781,0.234 0.234,1.828 -1.109,0.141 z"
                   style="fill:#ffffff;fill-opacity:1;fill-rule:nonzero;stroke:none"
                   id="path480" /><path
                   d="m 38.488,8.18 1.125,0.047 -0.125,2.609 c -0.011,0.367 0.035,0.625 0.141,0.781 0.113,0.156 0.301,0.242 0.562,0.25 0.27,0.012 0.469,-0.055 0.594,-0.203 0.133,-0.144 0.207,-0.398 0.219,-0.766 l 0.125,-2.609 1.125,0.063 -0.125,2.609 c -0.031,0.617 -0.211,1.07 -0.531,1.359 -0.325,0.282 -0.805,0.407 -1.438,0.375 -0.625,-0.031 -1.09,-0.203 -1.39,-0.515 -0.305,-0.313 -0.438,-0.774 -0.407,-1.391 z"
                   style="fill:#ffffff;fill-opacity:1;fill-rule:nonzero;stroke:none"
                   id="path482" /><path
                   d="m 43.035,8.469 3.922,0.89 -0.187,0.829 -1.407,-0.313 -0.781,3.422 -1.094,-0.25 0.782,-3.422 -1.422,-0.328 z"
                   style="fill:#ffffff;fill-opacity:1;fill-rule:nonzero;stroke:none"
                   id="path484" /><path
                   d="m 47.449,9.566 1.047,0.438 -1,2.406 c -0.148,0.336 -0.195,0.594 -0.141,0.781 0.051,0.188 0.196,0.329 0.438,0.422 0.25,0.102 0.457,0.11 0.625,0.016 0.164,-0.094 0.32,-0.305 0.469,-0.641 l 1,-2.406 1.031,0.438 -1,2.406 c -0.242,0.562 -0.563,0.922 -0.969,1.078 -0.406,0.164 -0.902,0.125 -1.484,-0.125 -0.574,-0.242 -0.949,-0.563 -1.125,-0.969 -0.168,-0.394 -0.133,-0.875 0.109,-1.437 z"
                   style="fill:#ffffff;fill-opacity:1;fill-rule:nonzero;stroke:none"
                   id="path486" /><path
                   d="m 52.328,14.168 c 0.195,0.137 0.363,0.199 0.5,0.187 0.133,-0.019 0.258,-0.113 0.375,-0.281 0.113,-0.164 0.149,-0.312 0.109,-0.437 -0.031,-0.125 -0.148,-0.254 -0.343,-0.391 l -0.391,-0.25 -0.64,0.922 z m -0.812,0.391 -0.922,1.375 -0.938,-0.625 2.438,-3.625 1.422,0.953 c 0.476,0.324 0.773,0.64 0.89,0.953 0.114,0.312 0.055,0.64 -0.172,0.984 -0.168,0.25 -0.359,0.414 -0.578,0.485 -0.211,0.07 -0.461,0.054 -0.75,-0.047 0.114,0.133 0.18,0.285 0.203,0.453 0.032,0.176 0.032,0.394 0,0.656 l -0.187,1.375 -0.984,-0.656 0.171,-1.188 c 0.02,-0.25 0.004,-0.445 -0.047,-0.578 -0.042,-0.125 -0.136,-0.238 -0.281,-0.344 z"
                   style="fill:#ffffff;fill-opacity:1;fill-rule:nonzero;stroke:none"
                   id="path488" /><path
                   d="m 55.941,14.438 2.188,2.109 -0.594,0.609 -1.375,-1.328 -0.562,0.594 1.297,1.25 -0.594,0.609 -1.297,-1.25 -0.688,0.719 1.422,1.391 -0.593,0.609 -2.235,-2.172 z"
                   style="fill:#ffffff;fill-opacity:1;fill-rule:nonzero;stroke:none"
                   id="path490" /><path
                   d="m 40.254,56.695 0.219,2.657 0.406,-0.047 c 0.445,-0.032 0.785,-0.172 1.016,-0.422 0.226,-0.25 0.32,-0.586 0.281,-1.016 -0.043,-0.426 -0.196,-0.742 -0.453,-0.953 -0.262,-0.207 -0.618,-0.297 -1.063,-0.266 z m -1.203,-0.75 1.187,-0.109 c 0.657,-0.051 1.145,-0.047 1.469,0.016 0.332,0.062 0.625,0.203 0.875,0.421 0.227,0.18 0.398,0.391 0.516,0.641 0.125,0.242 0.203,0.524 0.234,0.844 0.031,0.324 0.004,0.621 -0.078,0.89 -0.074,0.262 -0.203,0.5 -0.391,0.719 -0.218,0.242 -0.492,0.422 -0.812,0.547 -0.313,0.125 -0.793,0.215 -1.438,0.266 l -1.187,0.109 z"
                   style="fill:#ffffff;fill-opacity:1;fill-rule:nonzero;stroke:none"
                   id="path492" /><path
                   d="m 45.695,55.613 c -0.336,0.094 -0.554,0.293 -0.656,0.594 -0.105,0.305 -0.09,0.672 0.047,1.109 0.125,0.438 0.312,0.75 0.562,0.938 0.25,0.18 0.54,0.219 0.875,0.125 0.332,-0.102 0.551,-0.301 0.657,-0.594 0.101,-0.289 0.093,-0.656 -0.032,-1.094 -0.136,-0.437 -0.328,-0.75 -0.578,-0.937 -0.25,-0.195 -0.543,-0.242 -0.875,-0.141 z m -0.25,-0.781 c 0.664,-0.207 1.25,-0.176 1.75,0.094 0.5,0.273 0.852,0.746 1.063,1.422 0.195,0.668 0.16,1.25 -0.11,1.75 -0.261,0.5 -0.726,0.855 -1.39,1.062 -0.668,0.199 -1.25,0.164 -1.75,-0.109 -0.5,-0.27 -0.848,-0.739 -1.047,-1.406 -0.207,-0.676 -0.176,-1.266 0.094,-1.766 0.257,-0.5 0.722,-0.848 1.39,-1.047 z"
                   style="fill:#ffffff;fill-opacity:1;fill-rule:nonzero;stroke:none"
                   id="path494" /><path
                   d="m 50.32,54.977 c 0.207,-0.114 0.336,-0.235 0.391,-0.36 0.051,-0.125 0.023,-0.273 -0.078,-0.453 -0.094,-0.176 -0.211,-0.273 -0.344,-0.297 -0.125,-0.031 -0.293,0.012 -0.5,0.125 l -0.422,0.219 0.531,0.984 z m -0.062,0.906 0.781,1.453 -0.984,0.531 -2.063,-3.844 1.516,-0.812 c 0.5,-0.27 0.914,-0.379 1.25,-0.328 0.332,0.043 0.594,0.246 0.781,0.609 0.145,0.262 0.195,0.508 0.156,0.735 -0.043,0.23 -0.168,0.445 -0.375,0.64 0.164,-0.039 0.328,-0.035 0.485,0.016 0.164,0.055 0.367,0.164 0.609,0.328 l 1.109,0.797 -1.046,0.562 -0.985,-0.703 c -0.211,-0.133 -0.383,-0.211 -0.515,-0.234 -0.125,-0.02 -0.266,0.012 -0.422,0.094 z"
                   style="fill:#ffffff;fill-opacity:1;fill-rule:nonzero;stroke:none"
                   id="path496" /><path
                   d="m 51.121,52.348 3.156,-2.469 0.516,0.672 -1.125,0.875 2.172,2.765 -0.891,0.704 -2.172,-2.766 -1.14,0.891 z"
                   style="fill:#ffffff;fill-opacity:1;fill-rule:nonzero;stroke:none"
                   id="path498" /><path
                   d="m 54.156,49.996 0.938,-1.078 2.406,0.766 -1.125,-2.282 0.937,-1.093 3.313,2.843 -0.687,0.813 -2.422,-2.078 1.125,2.297 -0.469,0.531 -2.438,-0.75 2.422,2.078 -0.687,0.797 z"
                   style="fill:#ffffff;fill-opacity:1;fill-rule:nonzero;stroke:none"
                   id="path500" /><path
                   d="m 57.504,45.906 0.516,-0.984 2.296,1.234 c 0.325,0.18 0.579,0.246 0.766,0.203 0.195,-0.039 0.359,-0.175 0.484,-0.406 0.125,-0.238 0.145,-0.441 0.063,-0.609 -0.074,-0.176 -0.274,-0.352 -0.594,-0.532 l -2.297,-1.234 0.532,-0.984 2.296,1.234 c 0.539,0.293 0.868,0.649 0.985,1.063 0.125,0.418 0.035,0.902 -0.266,1.453 -0.293,0.554 -0.648,0.898 -1.062,1.031 -0.407,0.137 -0.879,0.059 -1.422,-0.234 z"
                   style="fill:#ffffff;fill-opacity:1;fill-rule:nonzero;stroke:none"
                   id="path502" /><path
                   d="m 59.484,42.062 0.36,-1.203 3.312,-0.656 -2.859,-0.859 0.312,-1.016 4.172,1.25 -0.359,1.203 -3.328,0.657 2.875,0.859 -0.313,1.015 z"
                   style="fill:#ffffff;fill-opacity:1;fill-rule:nonzero;stroke:none"
                   id="path504" /><path
                   d="m 61.625,36.75 2.656,0.219 0.031,-0.407 c 0.043,-0.445 -0.039,-0.8 -0.25,-1.062 -0.207,-0.258 -0.523,-0.41 -0.953,-0.453 -0.425,-0.031 -0.765,0.07 -1.015,0.297 -0.25,0.218 -0.395,0.554 -0.438,1 z m -0.937,1.047 0.093,-1.188 c 0.063,-0.656 0.157,-1.14 0.281,-1.453 0.118,-0.312 0.297,-0.57 0.547,-0.781 0.219,-0.195 0.465,-0.332 0.735,-0.406 0.261,-0.082 0.554,-0.11 0.875,-0.078 0.324,0.031 0.609,0.109 0.859,0.234 0.242,0.117 0.449,0.289 0.625,0.516 0.211,0.242 0.344,0.531 0.406,0.875 0.071,0.336 0.079,0.824 0.016,1.468 l -0.094,1.188 z"
                   style="fill:#ffffff;fill-opacity:1;fill-rule:nonzero;stroke:none"
                   id="path506" /><path
                   d="m 89.234,23.469 v 2.781 c -0.718,-0.32 -1.422,-0.566 -2.109,-0.734 -0.68,-0.164 -1.324,-0.25 -1.937,-0.25 -0.805,0 -1.399,0.117 -1.782,0.343 -0.386,0.219 -0.578,0.563 -0.578,1.032 0,0.343 0.129,0.617 0.391,0.812 0.258,0.199 0.734,0.367 1.422,0.5 l 1.421,0.297 c 1.458,0.293 2.493,0.734 3.11,1.328 0.613,0.594 0.922,1.445 0.922,2.547 0,1.437 -0.434,2.512 -1.297,3.219 -0.856,0.699 -2.156,1.047 -3.906,1.047 -0.836,0 -1.668,-0.079 -2.5,-0.235 -0.836,-0.156 -1.668,-0.39 -2.5,-0.703 v -2.844 c 0.832,0.45 1.64,0.789 2.421,1.016 0.782,0.219 1.532,0.328 2.25,0.328 0.739,0 1.301,-0.117 1.688,-0.359 0.395,-0.25 0.594,-0.602 0.594,-1.063 0,-0.406 -0.137,-0.719 -0.406,-0.937 -0.262,-0.227 -0.79,-0.43 -1.579,-0.61 l -1.312,-0.281 c -1.313,-0.281 -2.274,-0.726 -2.875,-1.344 -0.606,-0.613 -0.906,-1.437 -0.906,-2.468 0,-1.313 0.422,-2.317 1.265,-3.016 0.844,-0.695 2.051,-1.047 3.625,-1.047 0.719,0 1.457,0.059 2.219,0.172 0.758,0.105 1.547,0.262 2.359,0.469 z"
                   style="fill:#0f4a90;fill-opacity:1;fill-rule:nonzero;stroke:none"
                   id="path508" /><path
                   d="m 99.363,26.641 v 2.547 c -0.429,-0.29 -0.859,-0.504 -1.297,-0.641 -0.429,-0.133 -0.871,-0.203 -1.328,-0.203 -0.875,0 -1.558,0.258 -2.047,0.765 -0.492,0.512 -0.734,1.227 -0.734,2.141 0,0.918 0.242,1.633 0.734,2.141 0.489,0.511 1.172,0.765 2.047,0.765 0.489,0 0.953,-0.07 1.391,-0.218 0.445,-0.145 0.859,-0.364 1.234,-0.657 v 2.578 c -0.492,0.18 -0.992,0.305 -1.5,0.391 -0.5,0.094 -1.008,0.141 -1.515,0.141 -1.774,0 -3.157,-0.453 -4.157,-1.36 -1,-0.906 -1.5,-2.164 -1.5,-3.781 0,-1.625 0.5,-2.891 1.5,-3.797 1,-0.906 2.383,-1.359 4.157,-1.359 0.507,0 1.015,0.047 1.515,0.14 0.5,0.086 1,0.219 1.5,0.407 z"
                   style="fill:#0f4a90;fill-opacity:1;fill-rule:nonzero;stroke:none"
                   id="path510" /><path
                   d="m 101.953,26.328 h 3.141 v 9.813 h -3.141 z m 0,-3.812 h 3.141 v 2.546 h -3.141 z"
                   style="fill:#0f4a90;fill-opacity:1;fill-rule:nonzero;stroke:none"
                   id="path512" /><path
                   d="m 117.148,31.203 v 0.906 h -7.328 c 0.071,0.731 0.336,1.282 0.797,1.657 0.457,0.367 1.094,0.546 1.906,0.546 0.657,0 1.329,-0.097 2.016,-0.296 0.695,-0.196 1.41,-0.493 2.141,-0.891 v 2.422 c -0.742,0.281 -1.481,0.492 -2.219,0.625 -0.742,0.144 -1.481,0.219 -2.219,0.219 -1.781,0 -3.168,-0.446 -4.156,-1.344 -0.981,-0.906 -1.469,-2.172 -1.469,-3.797 0,-1.602 0.485,-2.863 1.453,-3.781 0.969,-0.914 2.297,-1.375 3.985,-1.375 1.539,0 2.773,0.465 3.703,1.39 0.926,0.93 1.39,2.168 1.39,3.719 z m -3.218,-1.031 c 0,-0.594 -0.18,-1.07 -0.532,-1.438 -0.343,-0.375 -0.796,-0.562 -1.359,-0.562 -0.605,0 -1.101,0.172 -1.484,0.516 -0.375,0.343 -0.61,0.839 -0.703,1.484 z"
                   style="fill:#0f4a90;fill-opacity:1;fill-rule:nonzero;stroke:none"
                   id="path514" /><path
                   d="m 128.543,30.172 v 5.969 h -3.156 v -4.579 c 0,-0.843 -0.024,-1.425 -0.063,-1.75 -0.031,-0.32 -0.094,-0.554 -0.187,-0.703 -0.125,-0.207 -0.297,-0.367 -0.516,-0.484 -0.211,-0.113 -0.445,-0.172 -0.703,-0.172 -0.656,0 -1.172,0.258 -1.547,0.766 -0.375,0.5 -0.562,1.199 -0.562,2.093 v 4.829 h -3.141 v -9.813 h 3.141 v 1.438 c 0.468,-0.571 0.968,-0.993 1.5,-1.266 0.539,-0.27 1.129,-0.406 1.765,-0.406 1.133,0 1.992,0.351 2.578,1.047 0.594,0.687 0.891,1.699 0.891,3.031 z"
                   style="fill:#0f4a90;fill-opacity:1;fill-rule:nonzero;stroke:none"
                   id="path516" /><path
                   d="m 134.496,23.547 v 2.781 h 3.219 v 2.25 h -3.219 v 4.156 c 0,0.461 0.086,0.766 0.266,0.922 0.176,0.156 0.535,0.235 1.078,0.235 h 1.609 v 2.25 h -2.687 c -1.242,0 -2.121,-0.254 -2.641,-0.766 -0.512,-0.52 -0.766,-1.398 -0.766,-2.641 v -4.156 h -1.562 v -2.25 h 1.562 v -2.781 z"
                   style="fill:#0f4a90;fill-opacity:1;fill-rule:nonzero;stroke:none"
                   id="path518" /><path
                   d="M 138.859,26.328 H 142 v 9.813 h -3.141 z m 0,-3.812 H 142 v 2.546 h -3.141 z"
                   style="fill:#0f4a90;fill-opacity:1;fill-rule:nonzero;stroke:none"
                   id="path520" /><path
                   d="m 151.93,26.641 v 2.375 c -0.68,-0.282 -1.328,-0.489 -1.953,-0.625 -0.625,-0.145 -1.215,-0.219 -1.766,-0.219 -0.594,0 -1.039,0.078 -1.328,0.234 -0.281,0.149 -0.422,0.375 -0.422,0.688 0,0.25 0.109,0.445 0.328,0.578 0.219,0.137 0.609,0.234 1.172,0.297 l 0.547,0.078 c 1.601,0.199 2.68,0.531 3.234,1 0.563,0.469 0.844,1.203 0.844,2.203 0,1.043 -0.387,1.828 -1.156,2.359 -0.774,0.524 -1.922,0.782 -3.453,0.782 -0.649,0 -1.321,-0.055 -2.016,-0.157 -0.688,-0.093 -1.399,-0.242 -2.125,-0.453 v -2.375 c 0.625,0.305 1.266,0.532 1.922,0.688 0.656,0.148 1.32,0.218 2,0.218 0.613,0 1.07,-0.082 1.375,-0.25 0.312,-0.175 0.469,-0.429 0.469,-0.765 0,-0.281 -0.11,-0.488 -0.329,-0.625 -0.211,-0.133 -0.632,-0.238 -1.265,-0.313 l -0.547,-0.078 c -1.399,-0.164 -2.375,-0.484 -2.938,-0.953 -0.562,-0.476 -0.843,-1.203 -0.843,-2.172 0,-1.039 0.351,-1.812 1.062,-2.312 0.719,-0.5 1.813,-0.75 3.281,-0.75 0.582,0 1.192,0.047 1.829,0.14 0.632,0.086 1.328,0.219 2.078,0.407 z"
                   style="fill:#0f4a90;fill-opacity:1;fill-rule:nonzero;stroke:none"
                   id="path522" /><path
                   d="m 157.215,23.547 v 2.781 h 3.219 v 2.25 h -3.219 v 4.156 c 0,0.461 0.086,0.766 0.265,0.922 0.176,0.156 0.536,0.235 1.079,0.235 h 1.609 v 2.25 h -2.688 c -1.242,0 -2.121,-0.254 -2.64,-0.766 -0.512,-0.52 -0.766,-1.398 -0.766,-2.641 v -4.156 h -1.562 v -2.25 h 1.562 v -2.781 z"
                   style="fill:#0f4a90;fill-opacity:1;fill-rule:nonzero;stroke:none"
                   id="path524" /><path
                   d="m 169.25,26.641 v 2.375 c -0.68,-0.282 -1.328,-0.489 -1.953,-0.625 -0.625,-0.145 -1.215,-0.219 -1.766,-0.219 -0.593,0 -1.039,0.078 -1.328,0.234 -0.281,0.149 -0.422,0.375 -0.422,0.688 0,0.25 0.11,0.445 0.328,0.578 0.219,0.137 0.61,0.234 1.172,0.297 l 0.547,0.078 c 1.602,0.199 2.68,0.531 3.234,1 0.563,0.469 0.844,1.203 0.844,2.203 0,1.043 -0.386,1.828 -1.156,2.359 -0.773,0.524 -1.922,0.782 -3.453,0.782 -0.649,0 -1.32,-0.055 -2.016,-0.157 -0.687,-0.093 -1.398,-0.242 -2.125,-0.453 v -2.375 c 0.625,0.305 1.266,0.532 1.922,0.688 0.656,0.148 1.32,0.218 2,0.218 0.613,0 1.07,-0.082 1.375,-0.25 0.313,-0.175 0.469,-0.429 0.469,-0.765 0,-0.281 -0.11,-0.488 -0.328,-0.625 -0.211,-0.133 -0.633,-0.238 -1.266,-0.313 l -0.547,-0.078 c -1.398,-0.164 -2.375,-0.484 -2.937,-0.953 C 161.281,30.852 161,30.125 161,29.156 c 0,-1.039 0.352,-1.812 1.062,-2.312 0.719,-0.5 1.813,-0.75 3.282,-0.75 0.582,0 1.191,0.047 1.828,0.14 0.633,0.086 1.328,0.219 2.078,0.407 z"
                   style="fill:#0f4a90;fill-opacity:1;fill-rule:nonzero;stroke:none"
                   id="path526" /><path
                   d="m 182.645,22.516 v 2.062 h -1.735 c -0.449,0 -0.762,0.078 -0.937,0.234 -0.18,0.157 -0.266,0.434 -0.266,0.829 v 0.687 h 2.688 v 2.25 h -2.688 v 7.563 h -3.125 v -7.563 h -1.562 v -2.25 h 1.562 v -0.687 c 0,-1.063 0.297,-1.848 0.891,-2.36 0.593,-0.508 1.515,-0.765 2.765,-0.765 z"
                   style="fill:#4590c5;fill-opacity:1;fill-rule:nonzero;stroke:none"
                   id="path528" /><path
                   d="m 187.664,28.344 c -0.699,0 -1.23,0.25 -1.594,0.75 -0.367,0.492 -0.547,1.211 -0.547,2.156 0,0.938 0.18,1.656 0.547,2.156 0.364,0.5 0.895,0.75 1.594,0.75 0.688,0 1.207,-0.25 1.563,-0.75 0.363,-0.5 0.546,-1.218 0.546,-2.156 0,-0.945 -0.183,-1.664 -0.546,-2.156 -0.356,-0.5 -0.875,-0.75 -1.563,-0.75 z m 0,-2.25 c 1.688,0 3.004,0.461 3.953,1.375 0.945,0.906 1.422,2.168 1.422,3.781 0,1.605 -0.477,2.867 -1.422,3.781 -0.949,0.907 -2.265,1.36 -3.953,1.36 -1.687,0 -3.012,-0.453 -3.969,-1.36 -0.961,-0.914 -1.437,-2.176 -1.437,-3.781 0,-1.613 0.476,-2.875 1.437,-3.781 0.957,-0.914 2.282,-1.375 3.969,-1.375 z"
                   style="fill:#4590c5;fill-opacity:1;fill-rule:nonzero;stroke:none"
                   id="path530" /><path
                   d="m 202.035,29 c -0.281,-0.125 -0.558,-0.219 -0.828,-0.281 -0.273,-0.063 -0.543,-0.094 -0.812,-0.094 -0.805,0 -1.422,0.262 -1.86,0.781 -0.437,0.512 -0.656,1.25 -0.656,2.219 v 4.516 h -3.141 v -9.813 h 3.141 v 1.61 c 0.406,-0.633 0.867,-1.098 1.391,-1.391 0.519,-0.301 1.144,-0.453 1.875,-0.453 0.101,0 0.218,0.008 0.343,0.015 0.125,0.012 0.301,0.032 0.532,0.063 z"
                   style="fill:#4590c5;fill-opacity:1;fill-rule:nonzero;stroke:none"
                   id="path532" /><path
                   d="m 207.68,23.062 h 9.109 v 2.547 h -5.734 v 2.438 h 5.39 v 2.547 h -5.39 v 5.547 h -3.375 z"
                   style="fill:#0f4a90;fill-opacity:1;fill-rule:nonzero;stroke:none"
                   id="path534" /><path
                   d="m 218.656,32.328 v -6 h 3.141 v 0.984 c 0,0.532 -0.008,1.2 -0.016,2 0,0.805 0,1.34 0,1.61 0,0.793 0.02,1.359 0.063,1.703 0.039,0.344 0.113,0.594 0.218,0.75 0.126,0.211 0.29,0.371 0.5,0.484 0.208,0.106 0.446,0.157 0.719,0.157 0.645,0 1.157,-0.25 1.531,-0.75 0.376,-0.5 0.563,-1.196 0.563,-2.094 v -4.844 h 3.141 v 9.813 h -3.141 v -1.422 c -0.469,0.574 -0.969,0.996 -1.5,1.265 -0.531,0.27 -1.117,0.407 -1.75,0.407 -1.137,0 -2,-0.344 -2.594,-1.032 -0.586,-0.695 -0.875,-1.707 -0.875,-3.031 z"
                   style="fill:#0f4a90;fill-opacity:1;fill-rule:nonzero;stroke:none"
                   id="path536" /><path
                   d="m 234.508,23.547 v 2.781 h 3.219 v 2.25 h -3.219 v 4.156 c 0,0.461 0.086,0.766 0.265,0.922 0.176,0.156 0.536,0.235 1.079,0.235 h 1.609 v 2.25 h -2.688 c -1.242,0 -2.121,-0.254 -2.64,-0.766 -0.512,-0.52 -0.766,-1.398 -0.766,-2.641 v -4.156 h -1.562 v -2.25 h 1.562 v -2.781 z"
                   style="fill:#0f4a90;fill-opacity:1;fill-rule:nonzero;stroke:none"
                   id="path538" /><path
                   d="m 238.777,32.328 v -6 h 3.141 v 0.984 c 0,0.532 -0.008,1.2 -0.016,2 0,0.805 0,1.34 0,1.61 0,0.793 0.02,1.359 0.063,1.703 0.039,0.344 0.113,0.594 0.219,0.75 0.125,0.211 0.289,0.371 0.5,0.484 0.207,0.106 0.445,0.157 0.718,0.157 0.645,0 1.157,-0.25 1.532,-0.75 0.375,-0.5 0.562,-1.196 0.562,-2.094 v -4.844 h 3.141 v 9.813 h -3.141 v -1.422 c -0.469,0.574 -0.969,0.996 -1.5,1.265 -0.531,0.27 -1.117,0.407 -1.75,0.407 -1.137,0 -2,-0.344 -2.594,-1.032 -0.586,-0.695 -0.875,-1.707 -0.875,-3.031 z"
                   style="fill:#0f4a90;fill-opacity:1;fill-rule:nonzero;stroke:none"
                   id="path540" /><path
                   d="m 258.484,29 c -0.281,-0.125 -0.558,-0.219 -0.828,-0.281 -0.273,-0.063 -0.543,-0.094 -0.812,-0.094 -0.805,0 -1.422,0.262 -1.86,0.781 -0.437,0.512 -0.656,1.25 -0.656,2.219 v 4.516 h -3.14 v -9.813 h 3.14 v 1.61 c 0.406,-0.633 0.867,-1.098 1.391,-1.391 0.519,-0.301 1.144,-0.453 1.875,-0.453 0.101,0 0.218,0.008 0.344,0.015 0.124,0.012 0.3,0.032 0.531,0.063 z"
                   style="fill:#0f4a90;fill-opacity:1;fill-rule:nonzero;stroke:none"
                   id="path542" /><path
                   d="m 268.555,31.203 v 0.906 h -7.328 c 0.07,0.731 0.335,1.282 0.796,1.657 0.457,0.367 1.094,0.546 1.907,0.546 0.656,0 1.328,-0.097 2.015,-0.296 0.696,-0.196 1.41,-0.493 2.141,-0.891 v 2.422 c -0.742,0.281 -1.481,0.492 -2.219,0.625 -0.742,0.144 -1.48,0.219 -2.219,0.219 -1.781,0 -3.168,-0.446 -4.156,-1.344 -0.98,-0.906 -1.469,-2.172 -1.469,-3.797 0,-1.602 0.485,-2.863 1.454,-3.781 0.968,-0.914 2.296,-1.375 3.984,-1.375 1.539,0 2.773,0.465 3.703,1.39 0.926,0.93 1.391,2.168 1.391,3.719 z m -3.219,-1.031 c 0,-0.594 -0.18,-1.07 -0.531,-1.438 -0.344,-0.375 -0.797,-0.562 -1.36,-0.562 -0.605,0 -1.101,0.172 -1.484,0.516 -0.375,0.343 -0.609,0.839 -0.703,1.484 z"
                   style="fill:#0f4a90;fill-opacity:1;fill-rule:nonzero;stroke:none"
                   id="path544" /><path
                   d="m 212.172,48.141 v 10.64 h 1.609 c 1.832,0 3.235,-0.453 4.203,-1.359 0.969,-0.914 1.454,-2.242 1.454,-3.984 0,-1.727 -0.485,-3.04 -1.454,-3.938 -0.961,-0.906 -2.359,-1.359 -4.203,-1.359 z m -4.5,-3.391 h 4.75 c 2.644,0 4.613,0.188 5.906,0.562 1.301,0.376 2.41,1.016 3.328,1.922 0.821,0.782 1.43,1.688 1.828,2.719 0.395,1.024 0.594,2.184 0.594,3.485 0,1.312 -0.199,2.484 -0.594,3.515 -0.398,1.031 -1.007,1.945 -1.828,2.735 -0.929,0.906 -2.047,1.546 -3.359,1.921 -1.305,0.375 -3.262,0.563 -5.875,0.563 h -4.75 z"
                   style="fill:#4590c5;fill-opacity:1;fill-rule:nonzero;stroke:none"
                   id="path546" /><path
                   d="m 233.469,51.766 c -0.93,0 -1.637,0.336 -2.125,1 -0.492,0.668 -0.735,1.625 -0.735,2.875 0,1.261 0.243,2.226 0.735,2.89 0.488,0.657 1.195,0.985 2.125,0.985 0.906,0 1.597,-0.328 2.078,-0.985 0.488,-0.664 0.734,-1.629 0.734,-2.89 0,-1.25 -0.246,-2.207 -0.734,-2.875 -0.481,-0.664 -1.172,-1 -2.078,-1 z m 0,-2.985 c 2.25,0 4.004,0.61 5.265,1.828 1.258,1.211 1.891,2.887 1.891,5.032 0,2.156 -0.633,3.843 -1.891,5.062 -1.261,1.211 -3.015,1.813 -5.265,1.813 -2.262,0 -4.028,-0.602 -5.297,-1.813 -1.274,-1.219 -1.906,-2.906 -1.906,-5.062 0,-2.145 0.632,-3.821 1.906,-5.032 1.269,-1.218 3.035,-1.828 5.297,-1.828 z"
                   style="fill:#4590c5;fill-opacity:1;fill-rule:nonzero;stroke:none"
                   id="path548" /><path
                   d="m 252.613,52.656 c -0.367,-0.164 -0.73,-0.289 -1.093,-0.375 -0.368,-0.082 -0.731,-0.125 -1.094,-0.125 -1.074,0 -1.903,0.344 -2.485,1.032 -0.574,0.687 -0.859,1.679 -0.859,2.968 v 6.016 h -4.187 V 49.094 h 4.187 v 2.156 c 0.531,-0.852 1.145,-1.477 1.844,-1.875 0.695,-0.395 1.535,-0.594 2.515,-0.594 0.133,0 0.282,0.008 0.438,0.016 0.164,0.012 0.406,0.039 0.719,0.078 z"
                   style="fill:#4590c5;fill-opacity:1;fill-rule:nonzero;stroke:none"
                   id="path550" /><path
                   d="m 258.137,45.391 v 3.703 h 4.297 v 3 h -4.297 v 5.531 c 0,0.617 0.117,1.031 0.359,1.25 0.238,0.211 0.719,0.313 1.438,0.313 h 2.14 v 2.984 h -3.578 c -1.656,0 -2.828,-0.344 -3.516,-1.031 -0.687,-0.688 -1.031,-1.86 -1.031,-3.516 v -5.531 h -2.078 v -3 h 2.078 v -3.703 z"
                   style="fill:#4590c5;fill-opacity:1;fill-rule:nonzero;stroke:none"
                   id="path552" /><path
                   d="m 276.086,51.266 c 0.531,-0.801 1.156,-1.414 1.875,-1.844 0.727,-0.426 1.531,-0.641 2.406,-0.641 1.5,0 2.641,0.465 3.422,1.391 0.789,0.93 1.188,2.273 1.188,4.031 v 7.969 h -4.204 v -6.813 c 0.008,-0.101 0.016,-0.207 0.016,-0.312 0.008,-0.113 0.016,-0.27 0.016,-0.469 0,-0.926 -0.141,-1.598 -0.422,-2.016 -0.274,-0.414 -0.711,-0.624 -1.313,-0.624 -0.793,0 -1.406,0.328 -1.843,0.984 -0.43,0.648 -0.649,1.59 -0.657,2.828 v 6.422 h -4.203 v -6.813 c 0,-1.445 -0.125,-2.379 -0.375,-2.797 -0.25,-0.414 -0.695,-0.624 -1.328,-0.624 -0.805,0 -1.422,0.328 -1.859,0.984 -0.438,0.656 -0.657,1.594 -0.657,2.812 v 6.438 h -4.203 V 49.094 h 4.203 v 1.922 c 0.508,-0.739 1.098,-1.297 1.766,-1.672 0.664,-0.375 1.398,-0.563 2.203,-0.563 0.906,0 1.703,0.219 2.391,0.657 0.695,0.437 1.222,1.046 1.578,1.828 z"
                   style="fill:#4590c5;fill-opacity:1;fill-rule:nonzero;stroke:none"
                   id="path554" /><path
                   d="m 288.918,57.078 v -7.984 h 4.187 v 1.312 c 0,0.711 -0.007,1.602 -0.015,2.672 0,1.063 0,1.777 0,2.141 0,1.054 0.023,1.812 0.078,2.281 0.051,0.461 0.144,0.793 0.281,1 0.176,0.273 0.399,0.48 0.672,0.625 0.281,0.148 0.598,0.219 0.953,0.219 0.875,0 1.555,-0.332 2.047,-1 0.5,-0.664 0.75,-1.598 0.75,-2.797 v -6.453 h 4.188 v 13.078 h -4.188 v -1.891 c -0.625,0.762 -1.293,1.324 -2,1.688 -0.699,0.363 -1.476,0.547 -2.328,0.547 -1.512,0 -2.664,-0.461 -3.453,-1.391 -0.781,-0.926 -1.172,-2.273 -1.172,-4.047 z"
                   style="fill:#4590c5;fill-opacity:1;fill-rule:nonzero;stroke:none"
                   id="path556" /><path
                   d="m 318.625,54.203 v 7.969 h -4.203 v -6.094 c 0,-1.125 -0.027,-1.898 -0.078,-2.328 -0.055,-0.426 -0.141,-0.742 -0.266,-0.953 -0.168,-0.27 -0.39,-0.477 -0.672,-0.625 -0.273,-0.156 -0.59,-0.234 -0.953,-0.234 -0.867,0 -1.547,0.339 -2.047,1.015 -0.5,0.668 -0.75,1.594 -0.75,2.781 v 6.438 h -4.187 V 49.094 h 4.187 v 1.922 c 0.625,-0.758 1.289,-1.321 2,-1.688 0.707,-0.363 1.492,-0.547 2.36,-0.547 1.507,0 2.656,0.465 3.437,1.391 0.781,0.93 1.172,2.273 1.172,4.031 z"
                   style="fill:#4590c5;fill-opacity:1;fill-rule:nonzero;stroke:none"
                   id="path558" /><path
                   d="m 330.992,51.016 v -7 h 4.203 v 18.156 h -4.203 v -1.891 c -0.586,0.774 -1.219,1.34 -1.906,1.703 -0.688,0.352 -1.492,0.532 -2.406,0.532 -1.618,0 -2.938,-0.641 -3.969,-1.922 -1.031,-1.282 -1.547,-2.93 -1.547,-4.953 0,-2.008 0.516,-3.657 1.547,-4.938 1.031,-1.281 2.351,-1.922 3.969,-1.922 0.906,0 1.703,0.184 2.39,0.547 0.696,0.367 1.336,0.93 1.922,1.688 z m -2.765,8.453 c 0.894,0 1.578,-0.321 2.046,-0.969 0.477,-0.656 0.719,-1.609 0.719,-2.859 0,-1.239 -0.242,-2.188 -0.719,-2.844 -0.468,-0.656 -1.152,-0.985 -2.046,-0.985 -0.887,0 -1.563,0.329 -2.032,0.985 -0.468,0.656 -0.703,1.605 -0.703,2.844 0,1.25 0.235,2.203 0.703,2.859 0.469,0.648 1.145,0.969 2.032,0.969 z"
                   style="fill:#4590c5;fill-opacity:1;fill-rule:nonzero;stroke:none"
                   id="path560" /></g></g></g></g></g></g></g></svg>
